{"title":"The.Smurfs.2.2013.avi","uid":9428684,"size":731168768,"categoryP":"video","categoryS":"movies","magnet":"?xt=urn:btih:9f8aac51dc7b55a2d6e8e5b0baeeb7150b926526&amp;dn=The.Smurfs.2.2013.avi&amp;tr=udp%3A%2F%2Ftracker.openbittorrent.com%3A80&amp;tr=udp%3A%2F%2Fopen.demonii.com%3A1337&amp;tr=udp%3A%2F%2Ftracker.coppersurfer.tk%3A6969&amp;tr=udp%3A%2F%2Fexodus.desync.com%3A6969","seeders":2,"leechers":0,"uploader":"stzar","files":1,"time":1388710159,"description":"Video\nID                             : 0\nFormat                         : MPEG-4 Visual\nFormat profile                 : Advanced Simple@L5\nFormat settings, BVOP          : 2\nFormat settings, QPel          : No\nFormat settings, GMC           : No warppoints\nFormat settings, Matrix        : Default (H.263)\nMuxing mode                    : Packed bitstream\nCodec ID                       : XVID\nCodec ID/Hint                  : XviD\nDuration                       : 1h 44mn\nBit rate                       : 792 Kbps\nWidth                          : 640 pixels\nHeight                         : 352 pixels\nDisplay aspect ratio           : 16:9\nFrame rate                     : 23.976 fps\nColor space                    : YUV\nChroma subsampling             : 4:2:0\nBit depth                      : 8 bits\nScan type                      : Progressive\nCompression mode               : Lossy\nBits/(Pixel*Frame)             : 0.147\nStream size                    : 594 MiB (85%)\nWriting library                : XviD 64\n\nAudio\nID                             : 1\nFormat                         : MPEG Audio\nFormat version                 : Version 1\nFormat profile                 : Layer 3\nCodec ID                       : 55\nCodec ID/Hint                  : MP3\nDuration                       : 1h 44mn\nBit rate mode                  : Constant\nBit rate                       : 128 Kbps\nChannel(s)                     : 2 channels\nSampling rate                  : 48.0 KHz\nCompression mode               : Lossy\nStream size                    : 96.0 MiB (14%)\nAlignment                      : Aligned on interleaves\nInterleave, duration           : 42 ms (1.00 video frame)\nInterleave, preload duration   : 504 ms\nWriting library                : LAME3.99r\nEncoding settings              : -m s -V 4 -q 3 -lowpass 17 -b 128\n","torrent":{"xt":"urn:btih:9f8aac51dc7b55a2d6e8e5b0baeeb7150b926526","amp;dn":"The.Smurfs.2.2013.avi","amp;tr":["udp%3A%2F%2Ftracker.openbittorrent.com%3A80","udp%3A%2F%2Fopen.demonii.com%3A1337","udp%3A%2F%2Ftracker.coppersurfer.tk%3A6969","udp%3A%2F%2Fexodus.desync.com%3A6969"],"infoHash":"9f8aac51dc7b55a2d6e8e5b0baeeb7150b926526","infoHashBuffer":{"type":"Buffer","data":[159,138,172,81,220,123,85,162,214,232,229,176,186,238,183,21,11,146,101,38]},"announce":[],"urlList":[]}}